# Blender v3.0.0 OBJ File: 'krujok.blend'
# www.blender.org
o Cube
v -0.099676 0.000000 0.033147
v 0.100044 0.000000 0.034560
v -1.294761 0.000000 -0.033147
v 1.300044 0.000000 -0.035788
v -0.199572 0.000000 -0.070130
v 0.204855 0.000000 -0.067489
v 0.002642 0.000000 -0.106988
v -1.600856 0.000000 -0.001321
v 1.595572 0.000000 0.001321
v -0.099061 0.000000 0.100648
v 0.100044 0.000000 0.099603
v -3.000000 0.000000 -2.600000
v 3.000000 0.000000 -2.600000
v 2.799493 0.000000 2.800238
v -2.800000 0.000000 -2.396925
v 3.000000 0.000000 -2.600000
v -2.799140 0.000000 2.799455
v 2.799493 0.000000 2.800238
v 3.000544 0.000000 2.989947
vt 0.000000 0.000000
vt 1.000000 1.000000
vt 0.000000 1.000000
vt 1.000000 1.000000
vt 0.000000 1.000000
vt 0.000000 0.000000
vt 0.000000 0.000000
vt 0.000000 0.000000
vt 0.000000 0.000000
vt 0.000000 0.000000
vt 0.000000 0.000000
vt 0.000000 0.000000
vt 0.000000 0.000000
vt 1.000000 0.000000
vt 0.000000 0.000000
vt 1.000000 0.000000
vn 0.0000 1.0000 0.0000
s off
f 1/1/1 4/2/1 3/3/1
f 3/3/1 6/4/1 5/5/1
f 5/6/1 6/7/1 7/8/1
f 1/1/1 3/9/1 8/10/1
f 4/11/1 2/12/1 9/13/1
f 2/14/1 10/15/1 11/16/1
f 1/1/1 2/14/1 4/2/1
f 3/3/1 4/2/1 6/4/1
f 2/14/1 1/1/1 10/15/1
l 13 16
l 14 18
