# Blender v3.0.0 OBJ File: 'krujok.blend'
# www.blender.org
o Cube
v -0.010520 -0.301278 1.980000
v 0.010162 -0.301278 1.980000
v -0.009917 -0.301278 -1.960000
v 0.010182 -0.301278 -1.960000
v -3.000000 0.000000 -2.600000
v 3.000000 0.000000 -2.600000
v 2.799493 0.000000 2.800238
v -2.800000 0.000000 -2.396925
v 3.000000 0.000000 -2.600000
v -2.799140 0.000000 2.799455
v 2.799493 0.000000 2.800238
v 3.000544 0.000000 2.989947
vt 1.000000 0.000000
vt 0.000000 1.000000
vt 0.000000 0.000000
vt 1.000000 1.000000
vn 0.0000 1.0000 0.0000
s off
f 2/1/1 3/2/1 1/3/1
f 2/1/1 4/4/1 3/2/1
l 6 9
l 7 11
